{"title":"The Hunger Games Mockingjay Part 2 2015 BDRip-RayBan","uid":13943092,"size":2056175297,"categoryP":"video","categoryS":"hd___movies","magnet":"?xt=urn:btih:43519b8414f7e8702839857e070d8db846b62d03&amp;dn=The+Hunger+Games+Mockingjay+Part+2+2015+BDRip-RayBan&amp;tr=udp%3A%2F%2Ftracker.leechers-paradise.org%3A6969&amp;tr=udp%3A%2F%2Fzer0day.ch%3A1337&amp;tr=udp%3A%2F%2Fopen.demonii.com%3A1337&amp;tr=udp%3A%2F%2Ftracker.coppersurfer.tk%3A6969&amp;tr=udp%3A%2F%2Fexodus.desync.com%3A6969","seeders":0,"leechers":2,"uploader":null,"files":3,"time":1458481579,"description":"General\r\nComplete name               : The Hunger Games Mockingjay Par 2 2015 BDRip-RayBan.mp4\r\nFormat                      : MPEG-4\r\nFormat profile              : Base Media\r\nCodec ID                    : isom (isom/iso2/avc1/mp41)\r\nFile size                   : 1.91 GiB\r\nDuration                    : 2h 16mn\r\nOverall bit rate            : 2 009 Kbps\r\nMovie name                  : The Hunger Games Mockingjay Par 2 2015 BDRip-RayBan\r\nRecorded date               : 0\r\nEncoded date                : UTC 2016-03-10 13:28:40\r\nTagged date                 : UTC 2016-03-10 13:28:40\r\nWriting application         : Lavf54.63.104\r\nComment                     : The Hunger Games Mockingjay Par 2 2015 BDRip-RayBan\r\nVideo\r\nID                          : 1\r\nFormat                      : AVC\r\nFormat/Info                 : Advanced Video Codec\r\nFormat profile              :   \r\nFormat settings, CABAC      : Yes\r\nFormat settings, ReFrames   : 1 frame\r\nCodec ID                    : avc1\r\nCodec ID/Info               : Advanced Video Coding\r\nDuration                    : 2h 16mn\r\nBit rate                    : 1 798 Kbps\r\nWidth                       : 1 280 pixels\r\nHeight                      : 532 pixels\r\nDisplay aspect ratio        : 2.40:1\r\nFrame rate mode             : Constant\r\nFrame rate                  : 23.976 (24000/1001) fps\r\nColor space                 : YUV\r\nChroma subsampling          : 4:2:0\r\nBit depth                   : 8 bits\r\nScan type                   : Progressive\r\nBits/(Pixel*Frame)          : 0.110\r\nStream size                 : 1.73 GiB (90%)\r\nWriting library             : x264 core 129\r\nEncoding settings           : cabac=1 / ref=1 / deblock=1:0:0 / analyse=0x1:0x131 / me=dia / subme=2 / psy=1 / psy_rd=1.00:0.00 / mixed_ref=0 / me_range=16 / chroma_me=1 / trellis=0 / 8x8dct=0 / cqm=0 / deadzone=21,11 / fast_pskip=1 / chroma_qp_offset=0 / threads=8 / lookahead_threads=1 / sliced_threads=0 / nr=0 / decimate=1 / interlaced=0 / bluray_compat=0 / constrained_intra=0 / bframes=0 / weightp=2 / keyint=250 / keyint_min=25 / scenecut=40 / intra_refresh=0 / rc_lookahead=40 / rc=abr / mbtree=1 / bitrate=1798 / ratetol=1.0 / qcomp=0.60 / qpmin=10 / qpmax=51 / qpstep=4 / ip_ratio=1.41 / aq=1:1.00\r\nEncoded date                : UTC 2016-03-10 13:28:40\r\nTagged date                 : UTC 2016-03-10 13:28:40\r\n\r\nAudio\r\nID                          : 2\r\nFormat                      : MPEG Audio\r\nFormat version              : Version 1\r\nFormat profile              : Layer 3\r\nMode                        : Joint stereo\r\nMode extension              : MS Stereo\r\nCodec ID                    : 6B\r\nDuration                    : 2h 16mn\r\nDuration_FirstFrame         : 48ms\r\nBit rate mode               : Constant\r\nBit rate                    : 192 Kbps\r\nChannel(s)                  : 2 channels\r\nSampling rate               : 48.0 KHz\r\nCompression mode            : Lossy\r\nStream size                 : 187 MiB (10%)\r\nDefault                     : Yes\r\nAlternate group             : 1\r\nEncoded date                : UTC 2016-03-10 13:28:40\r\nTagged date                 : UTC 2016-03-10 13:28:40","torrent":{"xt":"urn:btih:43519b8414f7e8702839857e070d8db846b62d03","amp;dn":"The+Hunger+Games+Mockingjay+Part+2+2015+BDRip-RayBan","amp;tr":["udp%3A%2F%2Ftracker.leechers-paradise.org%3A6969","udp%3A%2F%2Fzer0day.ch%3A1337","udp%3A%2F%2Fopen.demonii.com%3A1337","udp%3A%2F%2Ftracker.coppersurfer.tk%3A6969","udp%3A%2F%2Fexodus.desync.com%3A6969"],"infoHash":"43519b8414f7e8702839857e070d8db846b62d03","infoHashBuffer":{"type":"Buffer","data":[67,81,155,132,20,247,232,112,40,57,133,126,7,13,141,184,70,182,45,3]},"announce":[],"urlList":[]}}